<svg aria-hidden="true" style="position:absolute;width:0;height:0" xmlns="http://www.w3.org/2000/svg" overflow="hidden">
  <defs>
    <symbol id="icon-envelope" viewBox="0 0 59 44">
      <path d="M53.167 0H5.5A5.506 5.506 0 000 5.5v33C0 41.533 2.467 44 5.5 44h47.667c3.033 0 5.5-2.467 5.5-5.5v-33c0-3.033-2.467-5.5-5.5-5.5zm0 3.667c.249 0 .486.052.703.142L29.334 25.074 4.798 3.809a1.83 1.83 0 01.703-.142h47.667zm0 36.666H5.5A1.834 1.834 0 013.667 38.5V7.682l24.465 21.203a1.831 1.831 0 002.402 0L54.999 7.682V38.5a1.834 1.834 0 01-1.833 1.833z"/>
    </symbol>
    <symbol id="icon-facebook" viewBox="0 0 44 44">
      <path d="M25.331 15.321h1.826v-3.18a23.64 23.64 0 00-2.66-.141c-2.632 0-4.436 1.656-4.436 4.699V19.5h-2.905v3.555h2.905V32h3.562v-8.944h2.788l.442-3.555h-3.231v-2.449c.001-1.028.277-1.731 1.709-1.731z"/>
    </symbol>
    <symbol id="icon-instagram" viewBox="0 0 44 44">
      <path d="M31.98 17.88c-.047-1.063-.219-1.793-.465-2.426a4.88 4.88 0 00-1.157-1.774 4.923 4.923 0 00-1.77-1.153c-.637-.246-1.363-.418-2.426-.465-1.071-.051-1.41-.063-4.126-.063s-3.055.012-4.122.059c-1.063.047-1.793.219-2.426.465a4.88 4.88 0 00-1.774 1.157 4.936 4.936 0 00-1.153 1.77c-.246.637-.418 1.363-.465 2.426-.051 1.071-.063 1.41-.063 4.126s.012 3.055.059 4.122c.047 1.063.219 1.793.465 2.426a4.93 4.93 0 001.156 1.774c.5.508 1.106.903 1.77 1.153.637.246 1.363.418 2.426.465 1.066.047 1.406.059 4.122.059s3.055-.012 4.122-.059c1.063-.047 1.793-.219 2.426-.465a5.118 5.118 0 002.927-2.926c.246-.637.418-1.364.465-2.426.047-1.067.059-1.407.059-4.122s-.004-3.055-.051-4.122zm-1.801 8.166c-.043.977-.207 1.504-.344 1.856a3.32 3.32 0 01-1.899 1.899c-.352.137-.883.301-1.856.344-1.055.047-1.371.059-4.04.059s-2.989-.012-4.04-.059c-.977-.043-1.504-.207-1.856-.344a3.078 3.078 0 01-1.149-.746 3.102 3.102 0 01-.746-1.149c-.137-.352-.301-.883-.344-1.856-.047-1.055-.059-1.371-.059-4.04s.012-2.989.059-4.04c.043-.977.207-1.504.344-1.856a3.04 3.04 0 01.75-1.149 3.102 3.102 0 011.149-.746c.352-.137.883-.301 1.856-.344 1.055-.047 1.371-.059 4.04-.059 2.672 0 2.989.012 4.04.059.977.043 1.504.207 1.856.344.434.16.828.414 1.149.746.332.324.586.715.746 1.149.137.352.301.883.344 1.856.047 1.055.059 1.371.059 4.04s-.012 2.981-.059 4.036z"/>
      <path d="M22.037 16.864a5.139 5.139 0 10.002 10.274 5.139 5.139 0 00-.002-10.274zm0 8.471a3.333 3.333 0 110-6.667 3.333 3.333 0 010 6.667zM28.577 16.661a1.2 1.2 0 11-2.399 0 1.2 1.2 0 012.399 0z"/>
    </symbol>
    <symbol id="icon-linkedin" viewBox="0 0 44 44">
      <path d="M31.995 32v-.001H32v-7.335c0-3.588-.772-6.353-4.967-6.353-2.017 0-3.37 1.107-3.922 2.156h-.058v-1.821h-3.977v13.352h4.142v-6.612c0-1.741.33-3.424 2.486-3.424 2.124 0 2.156 1.987 2.156 3.536v6.501h4.138zM12.33 18.647h4.147v13.352H12.33V18.647zM14.402 12C13.076 12 12 13.076 12 14.402s1.076 2.424 2.402 2.424 2.402-1.098 2.402-2.424S15.727 12 14.402 12z"/>
    </symbol>
    <symbol id="icon-logo1" viewBox="0 0 40 44">
      <path d="M5.28 0l6.431 6.088H29.65V23.07l6.431 6.088V0h-30.8z"/>
      <path d="M0 5.831v28.325h29.92V22.897L11.9 5.838 0 5.831zm24.22 24.182H4.734v-19.05h1.377v17.76h18.108v1.29zM8.616 39.41l.72-1.482h.602L8.89 39.905v1.152h-.546v-1.152l-1.051-1.977h.604l.72 1.482zm3.09.917h-1.212l-.254.728h-.565l1.182-3.128h.488l1.184 3.128h-.567l-.256-.728zm-1.06-.438h.907l-.453-1.298-.453 1.298zm3.201.322c0-.145.039-.277.118-.397.079-.122.234-.266.466-.432a2.004 2.004 0 01-.256-.391.774.774 0 01-.071-.312c0-.245.074-.438.223-.58.149-.143.35-.215.602-.215.228 0 .414.067.559.202a.645.645 0 01.219.496.69.69 0 01-.099.361 1.184 1.184 0 01-.324.327l-.213.155.604.713c.087-.172.131-.363.131-.574h.453c0 .385-.09.701-.271.947l.46.544h-.606l-.176-.208c-.223.168-.49.251-.799.251s-.557-.082-.743-.245a.82.82 0 01-.277-.642zm1.036.471a.799.799 0 00.494-.176l-.683-.806-.067.047c-.172.13-.258.279-.258.447 0 .145.047.262.14.352s.218.135.374.135zm-.288-2.016c0 .12.074.271.221.453l.238-.163.067-.054a.387.387 0 00.133-.303.274.274 0 00-.092-.208.326.326 0 00-.234-.088c-.102 0-.183.034-.243.103s-.09.155-.09.26zm5.683 1.371c-.031.334-.155.594-.37.782-.215.186-.501.279-.857.279-.249 0-.469-.059-.66-.176-.189-.119-.335-.287-.438-.505s-.157-.471-.161-.758v-.292c0-.295.052-.555.157-.78s.254-.398.449-.52a1.26 1.26 0 01.679-.183c.345 0 .623.094.834.281s.333.453.367.795h-.541c-.026-.225-.092-.387-.198-.486-.105-.1-.259-.15-.462-.15a.64.64 0 00-.546.26c-.126.172-.191.425-.193.758v.277c0 .338.06.596.18.774a.604.604 0 00.533.266c.213 0 .374-.048.481-.144s.175-.256.204-.479h.541zm2.984-.464c0 .306-.053.576-.159.808a1.211 1.211 0 01-.455.533 1.25 1.25 0 01-.679.185c-.254 0-.48-.062-.679-.185a1.234 1.234 0 01-.46-.531 1.868 1.868 0 01-.163-.793v-.176c0-.305.054-.574.161-.808a1.22 1.22 0 01.458-.535c.198-.125.424-.187.679-.187s.48.062.677.185c.198.122.35.298.458.528.107.229.162.496.163.801v.174zm-.544-.163c0-.347-.066-.612-.198-.797a.64.64 0 00-.556-.277.642.642 0 00-.552.277c-.132.183-.199.443-.202.78v.18c0 .344.067.609.2.797a.65.65 0 00.559.281.636.636 0 00.554-.275c.13-.183.196-.451.196-.804v-.163z"/>
    </symbol>
    <symbol id="icon-logo2" viewBox="0 0 34 44">
      <path d="M14.365 2.483h.116c.214 0 .445.022.674.041a19.09 19.09 0 012.997.452V.553A17.792 17.792 0 0015.059.06c-.396-.03-.818-.049-1.25-.06h-.362a25.257 25.257 0 00-6.208.8A25.132 25.132 0 00.653 3.479v24.028a26.752 26.752 0 016.278-2.446 27.367 27.367 0 015.27-.809h.071c.298-.015.595-.024.901-.026v-2.461c-2.311.03-4.61.335-6.85.91-.828.215-1.629.448-2.38.706l-.856.29V4.936l.366-.176a23.923 23.923 0 018.898-2.27.495.495 0 01.077 0c.34-.017.683-.026 1.019-.026h.385c.178.004.355.009.533.019z"/>
      <path d="M20.401 5.02a21.888 21.888 0 01-3.583-.29 19.794 19.794 0 01-1.12-.226v23.753c1.541.381 3.123.568 4.709.555a25.399 25.399 0 006.208-.798 25.234 25.234 0 006.589-2.679v-23.6a26.921 26.921 0 01-6.276 2.449 26.614 26.614 0 01-6.526.837zm9.498.411l.856-.288v18.741l-.366.176a23.489 23.489 0 01-4.377 1.573c-1.83.474-3.712.717-5.602.725a19.47 19.47 0 01-1.67-.071l-.586-.052V6.962l.683.045c.497.032 1.01.047 1.569.047a29.036 29.036 0 007.113-.912 38.155 38.155 0 002.38-.712zM2.316 35.718a1.272 1.272 0 00-.953-.385 1.422 1.422 0 00-.55.103 1.239 1.239 0 00-.704.712c-.067.169-.101.35-.098.531v3.21c-.008.226.035.451.126.658.076.164.185.311.321.43.128.108.279.186.441.228.156.044.317.066.479.067.179.002.356-.036.518-.112a1.35 1.35 0 00.708-.727c.069-.162.104-.336.103-.512v-.359h-.839v.286a.752.752 0 01-.049.286.517.517 0 01-.122.181.512.512 0 01-.176.092.586.586 0 01-.176.03.425.425 0 01-.394-.172.757.757 0 01-.111-.43v-2.993c-.005-.166.03-.331.103-.48a.426.426 0 01.411-.194.445.445 0 01.374.181.68.68 0 01.139.43v.278h.831v-.327a1.501 1.501 0 00-.383-1.014zM7.301 35.682a1.493 1.493 0 00-.955-.353c-.171.001-.34.031-.501.09a1.308 1.308 0 00-.768.712 1.492 1.492 0 00-.122.622v3.079c-.006.217.036.432.122.63.076.166.187.312.325.43.128.119.279.211.443.271a1.45 1.45 0 001.002 0c.167-.061.321-.153.454-.271.134-.12.242-.267.317-.43.086-.199.128-.414.122-.63v-3.079a1.492 1.492 0 00-.122-.622 1.382 1.382 0 00-.317-.45zm-.391 4.15a.554.554 0 01-.167.446.616.616 0 01-.79 0 .558.558 0 01-.167-.446v-3.079a.554.554 0 01.167-.446.616.616 0 01.79 0 .558.558 0 01.167.446v3.079zM13.849 41.207v-5.829h-.807l-1.06 3.085h-.015l-1.068-3.085h-.798v5.829h.833v-3.546h.015l.816 2.507h.415l.822-2.507h.015v3.546h.833zM18.58 35.787a1.15 1.15 0 00-.471-.318 1.848 1.848 0 00-.604-.09h-1.237v5.829h.831v-2.276h.428c.259.012.517-.043.749-.159.189-.105.346-.259.456-.445.096-.155.161-.328.191-.508.033-.219.048-.441.045-.663.008-.28-.019-.56-.081-.833a1.241 1.241 0 00-.306-.536zm-.428 1.777a.738.738 0 01-.077.303.465.465 0 01-.214.204.851.851 0 01-.392.073h-.379v-1.982h.428a.809.809 0 01.375.073.473.473 0 01.195.215c.045.102.07.213.073.325v.387c0 .135.009.275 0 .4h-.009zM22.514 35.378h-.681l-1.284 5.829h.831l.244-1.252h1.132L23 41.207h.83l-1.316-5.829zm-.766 3.783l.409-2.113h.015l.407 2.113h-.83zM27.881 38.89h-.015l-1.254-3.512h-.798v5.829h.831v-3.505h.017l1.269 3.505h.781v-5.829h-.831v3.512zM32.956 35.378l-.668 2.317h-.017l-.668-2.317h-.88l1.141 3.365v2.464h.83v-2.464l1.141-3.365h-.88zM0 42.853h.4v1.123h.272v-1.123h.398v-.23H0v.23zM3.365 42.623l-.524 1.353h.289l.111-.308h.539l.116.308h.295l-.537-1.353h-.289zm-.043.817l.184-.501.184.501h-.368zM6.691 43.477h.313v.174a.52.52 0 01-.321.114.348.348 0 01-.287-.13.568.568 0 01-.101-.353c0-.301.131-.452.39-.452.068-.007.137.011.193.051s.096.098.113.164l.268-.052c-.058-.265-.248-.398-.574-.398a.682.682 0 00-.473.174.667.667 0 00-.195.521.74.74 0 00.173.508c.066.068.147.121.235.156s.184.049.278.042a.814.814 0 00.574-.215v-.534H6.69v.228zM10.088 42.623h-.274v1.353h.948v-.23h-.674v-1.123zM12.961 42.623h-.274v1.353h.274v-1.353zM15.769 43.527l-.554-.904h-.265v1.353h.255v-.884l.544.884h.272v-1.353h-.25v.904zM18.308 43.38h.674v-.23h-.674v-.297h.726v-.23h-1v1.353h1.027v-.23h-.753v-.366zM24.464 43.156h-.533v-.534h-.272v1.353h.272v-.592h.533v.592h.272v-1.353h-.272v.534zM27.018 43.38h.676v-.23h-.676v-.297h.728v-.23h-1v1.353h1.025v-.23h-.754v-.366zM30.481 43.38c.235-.037.355-.161.355-.377a.326.326 0 00-.132-.301.765.765 0 00-.396-.08h-.574v1.353h.272v-.566h.053a.363.363 0 01.169.03c.04.025.073.058.096.099l.295.43h.325l-.165-.265a.935.935 0 00-.3-.325zm-.274-.187h-.201v-.34h.214a.698.698 0 01.276.032c.02.018.035.039.046.064a.173.173 0 01-.007.153.182.182 0 01-.051.059.78.78 0 01-.276.032zM33.093 43.38h.674v-.23h-.674v-.297h.728v-.23h-1.002v1.353h1.027v-.23h-.754v-.366z"/>
    </symbol>
    <symbol id="icon-logo3" viewBox="0 0 42 44">
      <path d="M6.493 42.767a.118.118 0 01.082.035l.211.221a1.72 1.72 0 01-.592.419 2.13 2.13 0 01-.84.15 2.065 2.065 0 01-.79-.14 1.71 1.71 0 01-.979-1.008 2.216 2.216 0 01-.134-.785 2.042 2.042 0 01.145-.787 1.83 1.83 0 01.408-.612c.18-.173.395-.308.632-.399a2.27 2.27 0 01.813-.14 2.02 2.02 0 01.755.128 2 2 0 01.566.354l-.176.236a.168.168 0 01-.045.043.112.112 0 01-.071.018.156.156 0 01-.076-.025l-.095-.063-.132-.08a1.45 1.45 0 00-.729-.166c-.2-.002-.399.033-.584.105a1.32 1.32 0 00-.458.296 1.382 1.382 0 00-.297.471c-.074.2-.111.41-.108.622-.003.215.033.429.108.632.064.173.163.332.292.469.121.127.27.227.437.291.172.068.356.102.542.1.107.002.215-.005.321-.02.174-.02.34-.078.487-.168.074-.046.143-.098.208-.156a.154.154 0 01.1-.04zM12.573 41.658c.003.266-.045.53-.142.78-.086.226-.221.433-.396.606s-.388.308-.622.398a2.352 2.352 0 01-1.6 0 1.807 1.807 0 01-.618-.399 1.778 1.778 0 01-.4-.612 2.211 2.211 0 010-1.562 1.84 1.84 0 01.4-.614c.176-.167.387-.298.618-.384a2.305 2.305 0 011.6 0c.234.09.445.226.621.399.173.174.308.38.397.604.097.251.146.517.142.785zm-.553 0a1.81 1.81 0 00-.1-.627 1.228 1.228 0 00-.727-.765 1.697 1.697 0 00-1.163 0 1.245 1.245 0 00-.729.765 2.006 2.006 0 000 1.254 1.238 1.238 0 00.729.762c.375.134.788.134 1.163 0 .169-.065.321-.165.445-.293.126-.137.222-.296.282-.469.071-.202.104-.414.1-.627zM16.721 42.315l.055.14c.021-.05.039-.095.061-.14a1.47 1.47 0 01.068-.138l1.345-2.329c.026-.04.05-.065.076-.073a.345.345 0 01.111-.013h.397v3.789h-.471v-2.786-.118a1.41 1.41 0 010-.13l-1.353 2.362c-.017.035-.045.065-.079.086s-.075.032-.116.032h-.076c-.041.001-.081-.01-.116-.031s-.062-.051-.079-.087l-1.392-2.377v3.041h-.455v-3.781h.397a.322.322 0 01.111.013.15.15 0 01.074.073l1.374 2.332c.027.043.05.088.068.135zM21.782 42.127v1.419h-.526v-3.784h1.174c.222-.004.443.024.655.083.17.046.328.126.463.236a.967.967 0 01.263.371c.062.154.093.319.089.484.002.166-.031.331-.097.484a1.043 1.043 0 01-.284.379 1.308 1.308 0 01-.466.251 2.059 2.059 0 01-.634.088l-.637-.01zm0-.406h.637c.138.002.276-.018.408-.058a.861.861 0 00.295-.163.666.666 0 00.179-.251.775.775 0 00.063-.318c.006-.105-.012-.21-.053-.308s-.104-.186-.184-.258a1.054 1.054 0 00-.708-.203h-.637v1.56zM28.857 43.551h-.416a.19.19 0 01-.116-.035.233.233 0 01-.068-.088l-.358-.915h-1.798l-.371.915a.203.203 0 01-.066.085.184.184 0 01-.119.038h-.416l1.579-3.789h.547l1.6 3.789zm-2.606-1.407h1.484l-.626-1.542a2.805 2.805 0 01-.119-.356l-.06.198c-.018.06-.039.115-.058.161l-.621 1.54zM31.131 39.779c.031.016.059.04.079.068l2.303 2.856v-.133-2.808h.471v3.789h-.263a.239.239 0 01-.108-.023.286.286 0 01-.084-.07l-2.3-2.854a.94.94 0 010 .13V43.55h-.471v-3.789h.279a.22.22 0 01.095.018zM37.863 42.044v1.505h-.526v-1.505l-1.455-2.282h.471a.173.173 0 01.113.033.304.304 0 01.071.085l.911 1.472c.037.063.068.12.095.175s.047.108.066.161l.068-.163c.025-.06.055-.117.089-.173l.897-1.482a.374.374 0 01.068-.08.17.17 0 01.113-.038h.476l-1.458 2.292zM16.46 33.403c.229.028.461.05.695.07 3.551-1.514 6.556-3.991 8.637-7.122s3.149-6.778 3.067-10.484l-3.914-3.729c.796 3.945.424 8.024-1.075 11.779s-4.064 7.039-7.41 9.485z"/>
      <path d="M15.063 33.23l.105.02c3.575-2.437 6.301-5.839 7.825-9.768s1.776-8.202.723-12.268l-5.575-5.311c2.255 4.365 3.162 9.251 2.617 14.089s-2.521 9.428-5.697 13.238zM33.968 20.246c-.947 4.072-3.247 7.744-6.559 10.471a20.665 20.665 0 01-3.116 2.131c2.697-.755 5.175-2.09 7.245-3.902s3.675-4.053 4.691-6.549l-2.261-2.151z"/>
      <path d="M33.081 19.647l-3.219-3.067c-.061 3.496-1.105 6.913-3.021 9.896s-4.637 5.421-7.877 7.063h.016c.722 0 1.444-.041 2.161-.123 3.029-1.178 5.704-3.051 7.788-5.454s3.511-5.259 4.153-8.315zM15.529 3.664L11.689 0C8.256 1.264 5.304 3.486 3.218 6.375S.011 12.685 0 16.192c.013 3.874 1.382 7.634 3.89 10.684s6.012 5.216 9.957 6.155c3.522-4.088 5.584-9.14 5.886-14.421s-1.17-10.516-4.205-14.945zM41.953 19.083c-.014-4.597-1.937-9.001-5.348-12.252s-8.035-5.082-12.86-5.095c-2.229-.002-4.44.39-6.519 1.156l23.511 22.4a16.453 16.453 0 001.216-6.209z"/>
    </symbol>
    <symbol id="icon-logo4" viewBox="0 0 82 44">
      <path d="M12.69 13.129h-.003c-2.315 0-4.192 1.829-4.192 4.085v.003c0 2.256 1.877 4.085 4.192 4.085h.003c2.315 0 4.191-1.829 4.191-4.085v-.003c0-2.256-1.877-4.085-4.191-4.085zM43.628 11.823c-.007-3.133-1.287-6.136-3.56-8.352S34.713.007 31.498 0c-3.216.006-6.299 1.253-8.574 3.469s-3.555 5.22-3.562 8.354v17.278s24.262-2.633 24.265-17.276v-.003zM0 34.773c.006 2.18.897 4.269 2.479 5.811s3.725 2.411 5.962 2.417c2.237-.006 4.38-.875 5.961-2.416s2.473-3.63 2.48-5.81V22.752S0 24.586 0 34.772zm8.441 2.154c-.437 0-.865-.126-1.228-.363s-.647-.573-.814-.967a2.11 2.11 0 01.479-2.348 2.228 2.228 0 011.132-.589c.429-.083.873-.04 1.277.123s.749.439.992.793a2.114 2.114 0 01.206 2.024 2.154 2.154 0 01-.479.702 2.258 2.258 0 01-1.566.634v-.008zM25.673 35.59h-1.727v1.784h-.899v-4.365h2.842v.728h-1.943v1.127h1.727v.725zm4.322-.3c0 .43-.076.806-.228 1.13s-.37.574-.653.749a1.796 1.796 0 01-.971.264c-.362 0-.684-.087-.968-.261s-.504-.422-.66-.743a2.567 2.567 0 01-.237-1.115v-.216c0-.43.077-.807.231-1.133.156-.328.375-.579.657-.753.284-.176.607-.264.971-.264s.687.088.968.264c.284.174.503.425.657.753.156.326.234.702.234 1.13v.195zm-.911-.198c0-.458-.082-.805-.246-1.043s-.398-.357-.701-.357a.798.798 0 00-.698.354c-.164.234-.247.578-.249 1.031v.213c0 .446.082.791.246 1.037s.4.369.707.369c.302 0 .534-.118.695-.354.162-.238.244-.584.246-1.037v-.213zm3.828 1.137c0-.17-.06-.3-.18-.39-.12-.092-.336-.188-.647-.288a4.673 4.673 0 01-.741-.3c-.496-.268-.743-.629-.743-1.082 0-.236.066-.446.198-.63.134-.186.325-.331.573-.435.25-.104.53-.156.839-.156.312 0 .59.057.833.171.244.112.433.271.567.477.136.206.204.44.204.702h-.899c0-.2-.063-.355-.189-.465-.126-.112-.303-.168-.531-.168-.22 0-.391.047-.513.141a.436.436 0 00-.183.366c0 .142.071.261.213.357.144.096.355.186.633.27.512.154.884.345 1.118.573s.351.512.351.851c0 .378-.143.675-.429.89-.286.214-.671.321-1.154.321-.336 0-.641-.061-.917-.183a1.473 1.473 0 01-.633-.507 1.3 1.3 0 01-.216-.743h.902c0 .482.288.723.863.723.214 0 .381-.043.501-.129.12-.088.18-.21.18-.366zm4.8-2.492h-1.337v3.636h-.899v-3.636h-1.319v-.728h3.555v.728zm3.141 1.745h-1.727v1.169h2.027v.722h-2.926v-4.365h2.92v.728h-2.021v1.04h1.727v.705zm2.444.294h-.717v1.598h-.899v-4.365h1.622c.516 0 .913.115 1.193.345s.42.555.42.974c0 .298-.065.547-.195.746a1.314 1.314 0 01-.585.474l.944 1.784v.042h-.965l-.818-1.598zm-.717-.728h.725c.226 0 .401-.057.525-.171.124-.116.186-.275.186-.477 0-.206-.059-.368-.177-.486-.116-.118-.295-.177-.537-.177h-.723v1.31zm5.45.788v1.538h-.899v-4.365h1.703c.328 0 .616.06.863.18.25.12.442.291.576.513.134.22.201.471.201.753 0 .428-.147.765-.441 1.013-.292.246-.696.369-1.214.369h-.788zm0-.729h.803c.238 0 .419-.056.543-.168.126-.112.189-.272.189-.48 0-.214-.063-.387-.189-.519s-.3-.2-.522-.204h-.824v1.37zm5.69.375h-1.727v1.169h2.027v.722h-2.926v-4.365h2.92v.728h-2.021v1.04h1.727v.705zm4.173-1.745h-1.337v3.636h-.899v-3.636h-1.319v-.728h3.555v.728zm3.142 1.745h-1.727v1.169h2.026v.722h-2.926v-4.365h2.92v.728h-2.021v1.04h1.727v.705zm2.443.294h-.717v1.598h-.899v-4.365h1.622c.516 0 .913.115 1.193.345s.42.555.42.974c0 .298-.065.547-.195.746a1.314 1.314 0 01-.585.474l.944 1.784v.042h-.965l-.818-1.598zm-.716-.728h.725c.226 0 .401-.057.525-.171.124-.116.186-.275.186-.477 0-.206-.059-.368-.177-.486-.116-.118-.295-.177-.537-.177h-.722v1.31zm5.285 1.181c0-.17-.06-.3-.18-.39-.12-.092-.336-.188-.647-.288a4.617 4.617 0 01-.74-.3c-.496-.268-.743-.629-.743-1.082 0-.236.066-.446.198-.63.134-.186.325-.331.573-.435.25-.104.53-.156.839-.156.312 0 .589.057.833.171.244.112.433.271.567.477.136.206.204.44.204.702h-.899c0-.2-.063-.355-.189-.465-.126-.112-.303-.168-.531-.168-.22 0-.391.047-.513.141a.436.436 0 00-.183.366c0 .142.071.261.213.357.144.096.355.186.633.27.512.154.884.345 1.118.573s.351.512.351.851c0 .378-.143.675-.429.89-.286.214-.671.321-1.154.321-.336 0-.642-.061-.917-.183a1.473 1.473 0 01-.633-.507 1.3 1.3 0 01-.216-.743h.902c0 .482.288.723.863.723.214 0 .381-.043.501-.129.12-.088.18-.21.18-.366z"/>
    </symbol>
    <symbol id="icon-logo5" viewBox="0 0 55 44">
      <path d="M4.201 36.771c.215.267.33.602.324.946a1.5 1.5 0 01-.502 1.195 2.174 2.174 0 01-1.459.437H0v-5.996h2.512c.496-.033.988.108 1.392.398a1.368 1.368 0 01.487 1.122c.015.331-.089.656-.292.917a1.367 1.367 0 01-.764.469c.34.062.647.244.867.513zm-3.008-.905h1.074a1.02 1.02 0 00.683-.199.714.714 0 00.23-.586.741.741 0 00-.227-.586 1.03 1.03 0 00-.703-.202H1.194v1.573zm1.862 2.299a.743.743 0 00.254-.61.753.753 0 00-.259-.615 1.109 1.109 0 00-.729-.217H1.195v1.649h1.141c.257.015.511-.058.721-.208zM9.336 39.348l-1.397-2.343h-.525v2.343H6.212v-5.996h2.276a2.234 2.234 0 011.584.51 1.915 1.915 0 01.169 2.481 1.844 1.844 0 01-1.085.609l1.488 2.396H9.337zm-1.923-3.16h.983c.683 0 1.024-.303 1.024-.908a.897.897 0 00-.251-.673 1.065 1.065 0 00-.773-.243h-.995l.012 1.825zM15.906 38.141h-2.395l-.423 1.207h-1.26l2.2-5.929h1.362l2.191 5.929h-1.26l-.414-1.207zm-.321-.908l-.875-2.531-.875 2.531h1.75zM24.131 39.348h-1.193l-2.675-4.077v4.077h-1.19v-5.996h1.19l2.675 4.101v-4.101h1.193v5.996zM30.94 37.913a2.577 2.577 0 01-1.08 1.057 3.513 3.513 0 01-1.678.378h-2.124v-5.996h2.124a3.575 3.575 0 011.678.369 2.54 2.54 0 011.08 1.046 3.495 3.495 0 010 3.146zm-1.365-.143a2.2 2.2 0 000-2.862 2.07 2.07 0 00-1.494-.51h-.829v3.881h.829a2.071 2.071 0 001.494-.51zM16.653 0s15.401 5.838 15.075 14.286v14.289s-15.39-5.841-15.069-14.289L16.653 0zM45.449 25.229a21.05 21.05 0 019.785-3.621v-4.473a20.092 20.092 0 00-9.785 8.093z"/>
      <path d="M43.701 26.577a20.953 20.953 0 0111.533-10.378V3.31S33.3 11.626 33.764 23.656v20.343s.977-.372 2.515-1.069c0-.65 0-1.306.07-1.966a21.16 21.16 0 017.352-14.388z"/>
      <path d="M41.615 34.134c.115-1.411.372-2.806.767-4.165a19.69 19.69 0 00-4.644 12.288 63.694 63.694 0 004.219-2.232 21.095 21.095 0 01-.341-5.891zM42.488 34.208a20.207 20.207 0 00.271 5.334c5.993-3.6 12.726-9.163 12.467-15.885v-.586a19.635 19.635 0 00-11.402 5.349 20.106 20.106 0 00-1.336 5.788z"/>
    </symbol>
    <symbol id="icon-logo6">
      <path d="M42.795 20.425a3.119 3.119 0 01-.546-1.968v-2.853c0-.875.181-1.539.543-1.994s.983-.681 1.864-.679c.828 0 1.415.193 1.763.58.379.494.563 1.098.521 1.707v.67h-1.481v-.679a3.798 3.798 0 00-.043-.665.658.658 0 00-.212-.395.804.804 0 00-.536-.154.849.849 0 00-.564.163.77.77 0 00-.245.435 3.627 3.627 0 00-.058.705v3.462c-.023.334.042.668.19.972.074.103.176.184.295.236s.252.07.382.055a.753.753 0 00.524-.157.714.714 0 00.221-.421c.035-.23.05-.462.046-.694v-.702h1.481v.641a2.784 2.784 0 01-.512 1.794c-.34.424-.92.636-1.772.636s-1.496-.226-1.861-.697zM48.96 20.454c-.374-.444-.561-1.091-.561-1.947v-3.001c0-.847.187-1.489.561-1.924s.999-.652 1.876-.65c.871 0 1.493.217 1.867.65.374.435.564 1.077.564 1.924v3.001c0 .847-.19 1.498-.57 1.945s-.999.67-1.861.67c-.861 0-1.499-.226-1.876-.667zm2.566-.72c.134-.278.195-.583.178-.888v-3.674a1.768 1.768 0 00-.175-.871c-.075-.105-.18-.188-.302-.239s-.258-.069-.39-.051a.745.745 0 00-.695.291 1.723 1.723 0 00-.178.871v3.692c-.019.305.042.61.178.888.086.094.193.169.312.22a.968.968 0 00.76 0 .907.907 0 00.312-.22v-.017zM55.048 13.019h1.594l1.199 5.537 1.226-5.537h1.551l.156 7.992h-1.147l-.123-5.554-1.183 5.554h-.92l-1.226-5.575-.113 5.575h-1.159l.144-7.992zM62.562 13.019h2.483c1.431 0 2.146.756 2.146 2.269 0 1.449-.753 2.173-2.259 2.171h-.846v3.552h-1.533l.009-7.992zm2.121 3.415a1.108 1.108 0 00.843-.253c.176-.27.253-.587.221-.902a2.732 2.732 0 00-.074-.726c-.022-.079-.06-.154-.113-.219s-.118-.12-.194-.161a1.458 1.458 0 00-.684-.128h-.595v2.388h.595zM69.401 13.019h1.646l1.689 7.992h-1.429l-.334-1.843h-1.468l-.343 1.843h-1.45l1.689-7.992zm1.408 5.223l-.573-3.355-.573 3.355h1.146zM74.101 13.019h1.073l2.054 4.559v-4.559H78.5v7.992h-1.021l-2.066-4.759v4.759h-1.315l.003-7.992zM81.48 17.964l-1.707-4.934h1.438l1.042 3.169.978-3.169h1.407l-1.686 4.934v3.047H81.48v-3.047zM45.162 24.505v.418h-1.251v3.247h-.524v-3.247H42.13v-.418h3.032zM49.083 28.171h-.405a.168.168 0 01-.113-.035.178.178 0 01-.067-.084l-.362-.871h-1.735l-.362.871a.25.25 0 01-.055.099.175.175 0 01-.113.035h-.405l1.533-3.665h.533l1.551 3.651zm-2.539-1.361h1.447l-.613-1.492a2.837 2.837 0 01-.113-.345l-.058.194-.055.154-.607 1.489zM51.725 27.811c.096.005.192.005.288 0 .083-.008.165-.023.245-.044.075-.017.149-.04.221-.067.067-.026.135-.058.205-.09v-.824h-.613c-.015.001-.03-.001-.045-.006s-.027-.013-.038-.023a.083.083 0 01-.03-.067v-.281h1.189v1.405a2.205 2.205 0 01-.647.299c-.125.035-.254.06-.383.075a4.187 4.187 0 01-.448.023 2.154 2.154 0 01-.772-.136 1.845 1.845 0 01-.613-.383 1.754 1.754 0 01-.395-.58 1.967 1.967 0 01-.141-.76 2.073 2.073 0 01.138-.766c.088-.217.223-.415.395-.581.175-.165.384-.294.613-.38a2.36 2.36 0 01.822-.136c.143 0 .285.011.426.032a1.897 1.897 0 01.672.238c.094.057.183.121.267.192l-.147.226a.141.141 0 01-.12.069.186.186 0 01-.095-.029 1.704 1.704 0 01-.15-.087 1.29 1.29 0 00-.205-.099 1.715 1.715 0 00-.671-.113 1.658 1.658 0 00-.592.102 1.29 1.29 0 00-.451.29 1.29 1.29 0 00-.285.456 1.868 1.868 0 000 1.222c.067.172.171.33.307.461.126.126.278.225.448.29.195.063.402.088.607.072zM56.612 27.753h1.674v.418H56.1v-3.665h.524l-.012 3.247zM60.027 28.17h-.524v-3.665h.524v3.665zM61.977 24.522c.031.017.058.04.08.067l2.241 2.763a.954.954 0 010-.131V24.49h.457v3.68h-.264a.23.23 0 01-.113-.02.295.295 0 01-.083-.07l-2.238-2.76v2.85h-.438v-3.666h.273c.03 0 .059.006.086.017zM68.614 24.505v.403h-1.858v1.21h1.505v.389h-1.505v1.251h1.858v.403h-2.397v-3.657h2.397zM13.682 1.869l23.277 6.257v21.925l-23.277-6.254V1.869zM12.189 0v24.862l26.26 7.061V7.064L12.189 0z"/>
      <path d="M26.263 43.465L0 36.398v-24.86l26.263 7.064v24.863z"/>
      <path d="M12.624 1.587l22.973 6.178-9.77 9.252-22.976-6.181 9.773-9.249zM12.189 0L0 11.539l26.263 7.064L38.449 7.064 12.189 0zM27.74 42.066l10.708-10.14-10.708-2.882v13.021z"/>
    </symbol>
    <symbol id="icon-smartphone" viewBox="0 0 28 44">
      <path d="M23.375 0H4.125A4.13 4.13 0 000 4.125v35.75A4.13 4.13 0 004.125 44h19.25a4.13 4.13 0 004.125-4.125V4.125A4.13 4.13 0 0023.375 0zM4.125 2.75h19.25c.759 0 1.375.616 1.375 1.375V33h-22V4.125c0-.759.616-1.375 1.375-1.375zm19.25 38.5H4.125a1.376 1.376 0 01-1.375-1.375V35.75h22v4.125c0 .759-.616 1.375-1.375 1.375z"/>
      <path fill="var(--color1, #757575)" d="M6.472 37.782c.537.502.537 1.315 0 1.816s-1.408.502-1.945 0c-.537-.501-.537-1.314 0-1.816s1.408-.501 1.945 0z"/>
    </symbol>
    <symbol id="icon-twitter">
      <path d="M32 15.799a8.555 8.555 0 01-2.363.647 4.076 4.076 0 001.804-2.266 8.19 8.19 0 01-2.6.992 4.1 4.1 0 00-7.093 2.804c0 .325.027.637.095.935-3.409-.166-6.425-1.8-8.451-4.289a4.107 4.107 0 001.26 5.481 4.061 4.061 0 01-1.853-.505v.045a4.12 4.12 0 003.285 4.029 4.107 4.107 0 01-1.075.135c-.262 0-.527-.015-.776-.07.531 1.624 2.039 2.818 3.831 2.856a8.24 8.24 0 01-5.084 1.749 7.72 7.72 0 01-.981-.056 11.545 11.545 0 006.29 1.84c7.545 0 11.67-6.25 11.67-11.668 0-.181-.006-.356-.015-.53a8.176 8.176 0 002.055-2.129z"/>
    </symbol>
    <symbol id="icon-close-modal" viewBox="0 -6 30 38">
      <path d="M32 3.223l-3.223-3.223-12.777 12.777-12.777-12.777-3.223 3.223 12.777 12.777-12.777 12.777 3.223 3.223 12.777-12.777 12.777 12.777 3.223-3.223-12.777-12.777 12.777-12.777z"></path>
    </symbol>
    <symbol id="icon-mail" viewBox="0 0 43 32">
      <path d="M37.333 0h-32c-2.2 0-3.98 1.8-3.98 4l-.02 24c0 2.2 1.8 4 4 4h32c2.2 0 4-1.8 4-4V4c0-2.2-1.8-4-4-4zm-.8 8.5l-14.14 8.84c-.64.4-1.48.4-2.12 0L6.133 8.5c-.5-.32-.8-.86-.8-1.44 0-1.34 1.46-2.14 2.6-1.44l13.4 8.38 13.4-8.38c1.14-.7 2.6.1 2.6 1.44 0 .58-.3 1.12-.8 1.44z"/>
    </symbol>
    <symbol id="icon-name" viewBox="0 0 32 32">
      <path d="M16 16c4.42 0 8-3.58 8-8s-3.58-8-8-8-8 3.58-8 8 3.58 8 8 8zm0 4c-5.34 0-16 2.68-16 8v2c0 1.1.9 2 2 2h28c1.1 0 2-.9 2-2v-2c0-5.32-10.66-8-16-8z"/>
    </symbol>
    <symbol id="icon-phone" viewBox="0 0 32 32">
      <path d="M27.419 20.852l-4.201-.48a3.293 3.293 0 00-2.713.943l-3.044 3.044A24.888 24.888 0 016.56 13.458l3.06-3.06a3.293 3.293 0 00.943-2.713l-.48-4.168A3.31 3.31 0 006.791.589H3.929C2.06.589.505 2.144.621 4.013c.877 14.126 12.174 25.407 26.284 26.284 1.869.116 3.424-1.439 3.424-3.308v-2.861c.016-1.671-1.241-3.077-2.911-3.275z"/>
    </symbol>
    <symbol id="icon-telegram" viewBox="0 0 32 32">
      <path fill="var(--color1, #fff)" d="M32 0L0 18l10.227 3.788L26 7 14.002 23.186l.01.004-.012-.004V32l5.735-6.691L27 28l5-28z"/>
    </symbol>
    <symbol id="icon-close_40px" viewBox="0 0 32 32">
      <path d="M23.733 10.304L22.229 8.8l-5.963 5.963L10.303 8.8l-1.504 1.504 5.963 5.963-5.963 5.963 1.504 1.504 5.963-5.963 5.963 5.963 1.504-1.504-5.963-5.963 5.963-5.963z"/>
    </symbol>
    <symbol id="icon-menu_40px" viewBox="0 0 32 32">
      <path d="M6.4 11.733V9.6h19.2v2.133H6.4zm0 5.334h19.2v-2.133H6.4v2.133zm0 5.333h19.2v-2.133H6.4V22.4z"/>
    </symbol>
  </defs>
</svg>
