<svg aria-hidden="true" style="position:absolute;width:0;height:0" xmlns="http://www.w3.org/2000/svg" overflow="hidden">
  <defs>
    <symbol id="icon-mail" viewBox="0 0 43 32">
      <path d="M37.333 0h-32c-2.2 0-3.98 1.8-3.98 4l-.02 24c0 2.2 1.8 4 4 4h32c2.2 0 4-1.8 4-4V4c0-2.2-1.8-4-4-4zm-.8 8.5l-14.14 8.84c-.64.4-1.48.4-2.12 0L6.133 8.5c-.5-.32-.8-.86-.8-1.44 0-1.34 1.46-2.14 2.6-1.44l13.4 8.38 13.4-8.38c1.14-.7 2.6.1 2.6 1.44 0 .58-.3 1.12-.8 1.44z"/>
    </symbol>
    <symbol id="icon-name" viewBox="0 0 32 32">
      <path d="M16 16c4.42 0 8-3.58 8-8s-3.58-8-8-8-8 3.58-8 8 3.58 8 8 8zm0 4c-5.34 0-16 2.68-16 8v2c0 1.1.9 2 2 2h28c1.1 0 2-.9 2-2v-2c0-5.32-10.66-8-16-8z"/>
    </symbol>
    <symbol id="icon-phone" viewBox="0 0 32 32">
      <path d="M27.419 20.852l-4.201-.48a3.293 3.293 0 00-2.713.943l-3.044 3.044A24.888 24.888 0 016.56 13.458l3.06-3.06a3.293 3.293 0 00.943-2.713l-.48-4.168A3.31 3.31 0 006.791.589H3.929C2.06.589.505 2.144.621 4.013c.877 14.126 12.174 25.407 26.284 26.284 1.869.116 3.424-1.439 3.424-3.308v-2.861c.016-1.671-1.241-3.077-2.911-3.275z"/>
    </symbol>
    <symbol id="icon-telegram" viewBox="0 0 32 32">
      <path fill="var(--color1, #fff)" d="M32 0L0 18l10.227 3.788L26 7 14.002 23.186l.01.004-.012-.004V32l5.735-6.691L27 28l5-28z"/>
    </symbol>
  </defs>
</svg>
